# File created by Blade
# Date/Time:  Tue Jan 27 17:21:46 2015
#---------------------------------------------------------
:version 1.10
:name HOM
:units
  mass 1.0
  length 1.000000
  angle deg
:documentation
     Acclaim Skeleton File
:root
   axis xyz
   order TX TY TZ RX RY RZ
   position 0.000000 0.000000 0.000000
   orientation 0 0 0
:bonedata
   begin
      id 1
      name Spine_dum
      direction 0.000000 1.000000 0.000000
      length 7.539951
      axis 0.0 0.0 0.0 xyz
   end
   begin
      id 2
      name LeftUpLeg_dum
      direction 1.000000 0.000000 0.000000
      length 3.345476
      axis 0.0 0.0 0.0 xyz
   end
   begin
      id 3
      name RightUpLeg_dum
      direction -1.000000 0.000000 0.000000
      length 3.345476
      axis 0.0 0.0 0.0 xyz
   end
   begin
      id 4
      name Spine
      direction 0.000000 1.000000 0.000000
      length 0.000000
      axis 0.0 0.0 0.0 xyz
      dof rx ry rz
   end
   begin
      id 5
      name Spine_dum1
      direction 0.000000 1.000000 0.000000
      length 15.093809
      axis 0.0 0.0 0.0 xyz
   end
   begin
      id 6
      name Spine_dum2
      direction 0.000000 1.000000 0.000000
      length 9.738928
      axis 0.0 0.0 0.0 xyz
   end
   begin
      id 7
      name Spine_dum3
      direction 0.000000 1.000000 0.000000
      length 9.738928
      axis 0.0 0.0 0.0 xyz
   end
   begin
      id 8
      name Head
      direction 0.000000 1.000000 0.000000
      length 4.527550
      axis 0.0 0.0 0.0 xyz
      dof rx ry rz
   end
   begin
      id 9
      name LeftShoulder
      direction 1.000000 0.000000 0.000000
      length 7.084015
      axis 0.0 0.0 -90.0 xyz
      dof rx ry rz
   end
   begin
      id 10
      name LeftArm
      direction 1.000000 0.000000 0.000000
      length 10.259319
      axis 0.0 0.0 -90.0 xyz
      dof rx ry rz
   end
   begin
      id 11
      name LeftForeArm
      direction 1.000000 0.000000 0.000000
      length 9.896984
      axis 0.0 0.0 -90.0 xyz
      dof ry rz rx
   end
   begin
      id 12
      name LeftHand
      direction 0.000000 0.000000 0.000000
      length 0.000000
      axis 0.0 0.0 -90.0 xyz
      dof rx ry rz
   end
   begin
      id 13
      name LeftHand_dum1
      direction 0.000000 0.000000 0.000000
      length 0.000000
      axis 0.0 0.0 -90.0 xyz
   end
   begin
      id 14
      name LeftHand_dum2
      direction 1.000000 0.000000 0.000000
      length 3.937000
      axis 0.0 0.0 -90.0 xyz
   end
   begin
      id 15
      name LeftHandThumb1
      direction 0.000000 0.000000 1.000000
      length 3.937000
      axis 0.0 0.0 -90.0 xyz
      dof rx rz ry
   end
   begin
      id 16
      name RightShoulder
      direction -1.000000 0.000000 0.000000
      length 7.084015
      axis 0.0 0.0 90.0 xyz
      dof rx ry rz
   end
   begin
      id 17
      name RightArm
      direction -1.000000 0.000000 0.000000
      length 10.259319
      axis 0.0 0.0 90.0 xyz
      dof rx ry rz
   end
   begin
      id 18
      name RightForeArm
      direction -1.000000 0.000000 0.000000
      length 9.896984
      axis 0.0 0.0 90.0 xyz
      dof ry rz rx
   end
   begin
      id 19
      name RightHand
      direction 0.000000 0.000000 0.000000
      length 0.000000
      axis 0.0 0.0 90.0 xyz
      dof rx ry rz
   end
   begin
      id 20
      name RightHand_dum1
      direction 0.000000 0.000000 0.000000
      length 0.000000
      axis 0.0 0.0 90.0 xyz
   end
   begin
      id 21
      name RightHand_dum2
      direction -1.000000 0.000000 0.000000
      length 3.937000
      axis 0.0 0.0 90.0 xyz
   end
   begin
      id 22
      name RightHandThumb1
      direction 0.000000 0.000000 1.000000
      length 3.937000
      axis 0.0 0.0 90.0 xyz
      dof rx rz ry
   end
   begin
      id 23
      name LeftUpLeg
      direction 0.000000 -1.000000 0.000000
      length 19.114733
      axis 0.0 0.0 0.0 xyz
      dof rx ry rz
   end
   begin
      id 24
      name LeftLeg
      direction 0.000000 -1.000000 0.000000
      length 16.045604
      axis 0.0 0.0 0.0 xyz
      dof rx ry rz
   end
   begin
      id 25
      name LeftFoot
      direction 0.000000 -0.258819 0.965926
      length 5.543155
      axis 15.0 0.0 0.0 xyz
      dof rx ry rz
   end
   begin
      id 26
      name LeftToeBase
      direction 0.000000 0.000000 1.000000
      length 2.952750
      axis 0.0 0.0 0.0 xyz
      dof rx ry rz
   end
   begin
      id 27
      name RightUpLeg
      direction 0.000000 -1.000000 0.000000
      length 19.114733
      axis 0.0 0.0 0.0 xyz
      dof rx ry rz
   end
   begin
      id 28
      name RightLeg
      direction 0.000000 -1.000000 0.000000
      length 16.045604
      axis 0.0 0.0 0.0 xyz
      dof rx ry rz
   end
   begin
      id 29
      name RightFoot
      direction 0.000000 -0.258819 0.965926
      length 5.543155
      axis 15.0 0.0 0.0 xyz
      dof rx ry rz
   end
   begin
      id 30
      name RightToeBase
      direction 0.000000 0.000000 1.000000
      length 2.952750
      axis 0.0 0.0 0.0 xyz
      dof rx ry rz
   end
:hierarchy
   begin
      root Spine_dum LeftUpLeg_dum RightUpLeg_dum
      Spine_dum Spine
      LeftUpLeg_dum LeftUpLeg
      RightUpLeg_dum RightUpLeg
      Spine Spine_dum1 Spine_dum2 Spine_dum3
      Spine_dum1 Head
      Spine_dum2 LeftShoulder
      Spine_dum3 RightShoulder
      LeftShoulder LeftArm
      LeftArm LeftForeArm
      LeftForeArm LeftHand
      LeftHand LeftHand_dum1 LeftHand_dum2
      LeftHand_dum1 LeftHandThumb1
      RightShoulder RightArm
      RightArm RightForeArm
      RightForeArm RightHand
      RightHand RightHand_dum1 RightHand_dum2
      RightHand_dum1 RightHandThumb1
      LeftUpLeg LeftLeg
      LeftLeg LeftFoot
      LeftFoot LeftToeBase
      RightUpLeg RightLeg
      RightLeg RightFoot
      RightFoot RightToeBase
   end

# File created by Blade
# Date/Time:  Tue Jan 27 17:21:37 2015
# Frame Rate: 120.000 fps
#------------------------------------------------------
:FULLY-SPECIFIED
:DEGREES
2734
root -3.222639 36.152905 -0.219615 9.248668 50.655727 5.660915
Spine 5.309620 2.795087 0.424140
Head 5.213818 -2.532729 -0.647468
LeftShoulder 2.502479 -17.126283 7.044668
LeftArm 21.913502 -14.935586 -50.635288
LeftForeArm -2.026780 -0.000000 60.606926
LeftHand -11.615437 -0.000000 35.802053
LeftHandThumb1 -26.253704 0.000000 33.147579
RightShoulder -3.721053 -17.213711 1.112727
RightArm 15.386918 -21.392369 52.245113
RightForeArm 183.158361 -0.000000 37.069017
RightHand -0.528600 -0.000000 2.073495
RightHandThumb1 -24.326973 -0.000000 -32.862282
LeftUpLeg -73.809261 28.438772 -10.001045
LeftLeg 102.811444 -0.000000 -0.000000
LeftFoot -6.218009 1.740835 -32.205590
LeftToeBase 14.722631 -0.000000 -0.000000
RightUpLeg -19.489451 -20.578547 8.742948
RightLeg 27.040397 -0.000000 -0.000000
RightFoot -20.831701 -19.319784 -0.478048
RightToeBase 0.652149 -0.000000 -0.000000
2735
root -3.205820 36.166438 -0.218829 9.277799 50.220796 5.631673
Spine 5.194695 2.975129 0.379794
Head 5.150145 -2.431001 -0.748128
LeftShoulder 2.360705 -17.130604 7.094095
LeftArm 21.807733 -14.883831 -50.591046
LeftForeArm -2.118245 -0.000000 60.516040
LeftHand -11.592270 -0.000000 36.102983
LeftHandThumb1 -26.253704 0.000000 33.147579
RightShoulder -3.725230 -17.255209 1.067980
RightArm 15.341415 -21.375813 52.299735
RightForeArm 183.116914 0.000000 36.989909
RightHand -0.267127 -0.000000 2.055599
RightHandThumb1 -24.326973 -0.000000 -32.862282
LeftUpLeg -72.810556 28.540870 -8.279499
LeftLeg 102.613766 -0.000000 -0.000000
LeftFoot -5.697226 1.346304 -32.431230
LeftToeBase 14.429951 -0.000000 -0.000000
RightUpLeg -19.433069 -20.345414 8.704223
RightLeg 26.881011 -0.000000 -0.000000
RightFoot -20.717096 -19.042193 -0.515284
RightToeBase 0.559432 -0.000000 -0.000000
2736
root -3.187661 36.183438 -0.219459 9.393385 49.891205 5.711367
Spine 5.071749 3.086070 0.255013
Head 5.141649 -2.346867 -0.717596
LeftShoulder 2.261626 -17.076001 7.137056
LeftArm 21.756070 -14.849385 -50.532807
LeftForeArm -2.052028 0.000000 60.410249
LeftHand -11.666830 0.000000 35.915277
LeftHandThumb1 -26.253704 0.000000 33.147579
RightShoulder -3.777087 -17.292998 1.099029
RightArm 15.305350 -21.386763 52.299756
RightForeArm 183.020234 -0.000000 36.854393
RightHand -0.415081 -0.000000 2.028119
RightHandThumb1 -24.326973 -0.000000 -32.862282
LeftUpLeg -71.741048 28.491559 -6.605355
LeftLeg 102.349849 -0.000000 -0.000000
LeftFoot -5.270586 1.113640 -32.754950
LeftToeBase 15.007518 -0.000000 -0.000000
RightUpLeg -19.385076 -20.248407 8.615101
RightLeg 26.704475 -0.000000 -0.000000
RightFoot -20.601660 -18.870090 -0.775645
RightToeBase 0.912912 -0.000000 -0.000000
2737
root -3.170045 36.199138 -0.216953 9.481262 49.621090 5.763471
Spine 4.953443 3.147605 0.154767
Head 5.137059 -2.285912 -0.679008
LeftShoulder 2.150187 -17.001765 7.171117
LeftArm 21.784297 -14.781964 -50.484437
LeftForeArm -1.832799 -0.000000 60.250635
LeftHand -11.819006 -0.000000 36.244506
LeftHandThumb1 -26.253704 0.000000 33.147579
RightShoulder -3.809408 -17.309291 1.136507
RightArm 15.202110 -21.381923 52.315744
RightForeArm 183.036959 -0.000000 36.747121
RightHand -0.373482 0.000000 2.112146
RightHandThumb1 -24.326973 -0.000000 -32.862282
LeftUpLeg -70.613100 28.358865 -4.868144
LeftLeg 102.093821 -0.000000 -0.000000
LeftFoot -4.889937 0.857905 -32.186796
LeftToeBase 14.550365 -0.000000 -0.000000
RightUpLeg -19.315249 -20.200855 8.547444
RightLeg 26.496652 -0.000000 -0.000000
RightFoot -20.591396 -18.688901 -0.736404
RightToeBase 0.741585 -0.000000 -0.000000
2738
root -3.147342 36.213745 -0.212656 9.519494 49.355670 5.784082
Spine 4.854833 3.154350 0.096573
Head 5.137709 -2.147617 -0.637267
LeftShoulder 1.989267 -16.948916 7.226844
LeftArm 21.743865 -14.740085 -50.493203
LeftForeArm -1.809465 -0.000000 60.150229
LeftHand -11.845456 -0.000000 36.449519
LeftHandThumb1 -26.253704 0.000000 33.147579
RightShoulder -3.803127 -17.350492 1.138960
RightArm 15.116938 -21.336053 52.341245
RightForeArm 182.985224 -0.000000 36.614934
RightHand -0.273020 -0.000000 2.134107
RightHandThumb1 -24.326973 -0.000000 -32.862282
LeftUpLeg -69.496255 28.233843 -3.189564
LeftLeg 101.806398 -0.000000 -0.000000
LeftFoot -4.671302 0.976809 -31.904309
LeftToeBase 14.776104 -0.000000 -0.000000
RightUpLeg -19.213019 -20.195914 8.494334
RightLeg 26.302947 -0.000000 -0.000000
RightFoot -20.502265 -18.455647 -0.965369
RightToeBase 0.820761 -0.000000 -0.000000
